<svg width="688" height="688" xmlns="http://www.w3.org/2000/svg" xmlns:xlink="http://www.w3.org/1999/xlink" xml:space="preserve" overflow="hidden"><rect width="100%" height="100%" fill="#FFFFFF"/><g transform="translate(-317 92)"><g><g><g><g><path d="M176.028 333.932C213.225 342.834 262.54 347.735 314.873 347.735 367.205 347.735 416.52 342.834 453.725 333.932 473.038 329.307 487.968 323.853 498.549 317.614L498.549 402.221C498.549 402.362 498.528 402.525 498.486 402.695L517.637 402.695 517.637 174.3C517.637 156.232 496.156 141.763 453.788 131.302 416.563 122.116 367.233 117.052 314.873 117.052 262.512 117.052 213.182 122.116 175.964 131.302 133.597 141.763 112.116 156.232 112.116 174.3L112.116 514.152C112.116 531.865 133.618 545.988 176.028 556.137 210.959 564.502 256.57 569.332 305.333 569.891L305.333 550.811C258.043 550.259 214.011 545.613 180.469 537.581 140.247 527.956 131.196 517.169 131.196 514.159L131.196 427.895C141.784 434.127 156.714 439.588 176.028 444.206 210.959 452.57 256.57 457.4 305.333 457.96L305.333 438.88C258.043 438.327 214.011 433.681 180.469 425.65 140.247 416.025 131.196 405.245 131.196 402.228L131.196 317.621C141.784 323.853 156.714 329.314 176.028 333.932ZM180.532 149.83C216.306 140.998 264.013 136.132 314.873 136.132 365.732 136.132 413.447 140.998 449.213 149.83 489.689 159.823 498.549 170.886 498.549 174.3 498.549 177.713 489.689 188.776 449.213 198.777 413.447 207.609 365.739 212.467 314.873 212.467 264.006 212.467 216.306 207.609 180.532 198.777 140.063 188.783 131.196 177.721 131.196 174.3 131.196 170.879 140.063 159.823 180.532 149.83ZM131.196 200.554C141.77 206.943 156.678 212.538 175.964 217.297 213.182 226.49 262.512 231.554 314.873 231.554 367.233 231.554 416.57 226.49 453.788 217.297 473.074 212.538 487.975 206.943 498.549 200.554L498.549 291.947C498.549 294.964 489.498 305.743 449.284 315.375 413.496 323.938 365.76 328.655 314.873 328.655 263.985 328.655 216.256 323.938 180.469 315.375 140.247 305.743 131.196 294.964 131.196 291.947L131.196 200.554Z" fill="#2F2925" fill-rule="nonzero" fill-opacity="1" transform="matrix(1.0017 0 0 1 317.415 -91)"/><path d="M390.613 522.821C398.155 514.563 404.197 507.381 408.744 501.276 413.291 495.171 416.612 489.668 418.709 484.76 420.798 479.852 421.853 475.064 421.853 470.397 421.853 458.909 418.171 450.02 410.812 443.738 403.453 437.456 393.127 434.311 379.84 434.311 373.615 434.311 367.212 435.183 360.633 436.918 354.046 438.653 348.182 441.019 343.04 444.007L343.04 463.215C355.25 456.508 366.617 453.158 377.149 453.158 392.348 453.158 399.947 459.504 399.947 472.189 399.947 475.305 399.112 478.627 397.433 482.154 395.754 485.688 392.971 489.909 389.083 494.81 385.195 499.718 379.953 505.76 373.374 512.941L339.088 550.28 339.088 565.358 422.208 565.358 422.208 547.05 368.352 547.05 390.613 522.814Z" fill="#312D2A" fill-rule="nonzero" fill-opacity="1" transform="matrix(1.0017 0 0 1 317.415 -91)"/><path d="M511.071 483.953C505.327 480.425 498.564 478.655 490.787 478.655 483.244 478.655 476.544 480.631 470.68 484.583 473.074 480.751 476.126 476.268 479.838 471.119L504.789 436.649 480.914 436.649 458.477 467.882C444.354 487.515 437.293 505.228 437.293 521.022 437.293 535.626 441.359 547.05 449.503 555.308 457.641 563.567 468.831 567.696 483.074 567.696 492.409 567.696 500.518 565.783 507.403 561.952 514.28 558.127 519.641 552.773 523.473 545.882 527.297 539.005 529.217 531.016 529.217 521.915 529.217 513.062 527.63 505.398 524.457 498.932 521.284 492.473 516.829 487.473 511.078 483.945ZM501.467 542.206C496.977 547.114 490.844 549.565 483.067 549.565 475.291 549.565 469.186 547.142 464.759 542.291 460.333 537.446 458.116 530.654 458.116 521.915 458.116 518.685 458.293 515.696 458.654 512.941 464.518 501.092 473.492 495.164 485.581 495.164 492.409 495.164 497.877 497.65 502.013 502.615 506.142 507.58 508.21 514.131 508.21 522.276 508.21 530.654 505.965 537.298 501.475 542.206Z" fill="#312D2A" fill-rule="nonzero" fill-opacity="1" transform="matrix(1.0017 0 0 1 317.415 -91)"/><path d="M557.384 433.391C554.31 433.391 551.165 433.709 547.964 434.326 544.763 434.963 541.901 435.806 539.387 436.875L539.387 445.828C545.726 443.505 551.371 442.343 556.335 442.343 559.657 442.343 561.98 442.91 563.305 444.036 564.629 445.169 565.281 447.301 565.281 450.438L565.281 452.79 555.96 452.79C549.43 452.79 544.281 454.256 540.52 457.209 536.767 460.163 534.876 464.214 534.876 469.363 534.876 474.2 536.37 478.025 539.352 480.857 542.34 483.683 546.377 485.1 551.456 485.1 554.784 485.1 557.823 484.356 560.585 482.883 563.347 481.403 565.642 479.321 567.462 476.615L569.056 483.953 576.676 483.953 576.676 450.332C576.676 439.035 570.238 433.384 557.377 433.384ZM565.472 469.455C564.162 471.664 562.462 473.364 560.394 474.59 558.326 475.808 556.13 476.424 553.8 476.424 551.286 476.424 549.345 475.723 547.964 474.306 546.583 472.89 545.896 470.935 545.896 468.421 545.896 462.889 549.685 460.127 557.292 460.127L565.479 460.127 565.479 469.448Z" fill="#312D2A" fill-rule="nonzero" fill-opacity="1" transform="matrix(1.0017 0 0 1 317.415 -91)"/><path d="M588.539 415.033 601.628 415.033 601.628 424.446 588.539 424.446Z" fill="#312D2A" fill-rule="nonzero" fill-opacity="1" transform="matrix(1.0017 0 0 1 317.415 -91)"/><path d="M585.246 434.446 585.246 439.142 590.232 442.818 590.232 483.974 601.727 483.974 601.727 434.446 585.246 434.446Z" fill="#312D2A" fill-rule="nonzero" fill-opacity="1" transform="matrix(1.0017 0 0 1 317.415 -91)"/></g></g></g></g></g></svg>